<svg width="25" height="25" xmlns="http://www.w3.org/2000/svg">

 <g>
  <title>background</title>
  <rect fill="none" id="canvas_background" height="402" width="582" y="-1" x="-1"/>
 </g>
 <g>
  <title>Layer 1</title>
  <g transform="rotate(-90 12.507786750793459,12.508769989013672) " id="surface1">
   <path id="svg_1" fill-rule="nonzero" fill="rgb(0%,0%,0%)" d="m24.88281,18.26172c-0.03125,-0.06641 -0.05859,-0.12109 -0.08203,-0.16406c-0.4375,-0.78125 -1.26562,-1.73828 -2.48828,-2.87891l-0.02734,-0.02344l-0.01172,-0.01562l-0.01563,-0.01172l-0.01172,0c-0.55468,-0.53125 -0.90625,-0.88672 -1.05468,-1.06641c-0.26953,-0.34765 -0.33203,-0.69922 -0.1836,-1.05859c0.10547,-0.26563 0.4961,-0.83594 1.17188,-1.70313c0.35547,-0.46093 0.64062,-0.83203 0.84765,-1.10937c1.50391,-1.99609 2.15235,-3.27344 1.95313,-3.82813l-0.07813,-0.1289c-0.05078,-0.07813 -0.18359,-0.15235 -0.40234,-0.21485c-0.21875,-0.0664 -0.49609,-0.07812 -0.83203,-0.03515l-3.75391,0.02734c-0.05859,-0.01953 -0.14843,-0.01953 -0.25781,0.00781c-0.11328,0.02344 -0.17187,0.03907 -0.17187,0.03907l-0.06641,0.03125l-0.05078,0.03906c-0.04297,0.02734 -0.08985,0.07031 -0.14063,0.13672c-0.05468,0.0664 -0.09765,0.14062 -0.13281,0.22656c-0.40625,1.05078 -0.87109,2.03125 -1.39453,2.93359c-0.32031,0.53907 -0.61328,1.00391 -0.88281,1.39844c-0.26953,0.39453 -0.4961,0.6875 -0.67969,0.875c-0.17969,0.1836 -0.34766,0.33594 -0.49219,0.44922c-0.14844,0.10938 -0.26172,0.16016 -0.33984,0.14063c-0.07813,-0.01563 -0.15235,-0.03516 -0.22266,-0.05079c-0.12109,-0.07812 -0.21875,-0.18359 -0.29297,-0.32031c-0.07422,-0.13281 -0.12109,-0.30469 -0.14843,-0.50781c-0.02735,-0.20313 -0.04297,-0.37891 -0.04688,-0.52734c-0.00391,-0.14844 0,-0.35547 0.00781,-0.625c0.00782,-0.26954 0.01172,-0.45313 0.01172,-0.54688c0,-0.32812 0.00781,-0.6875 0.01953,-1.07422c0.01563,-0.38672 0.02344,-0.6914 0.03516,-0.91797c0.00781,-0.22656 0.01172,-0.46484 0.01172,-0.71875c0,-0.25 -0.01563,-0.44922 -0.04688,-0.58984c-0.03125,-0.14453 -0.07422,-0.28125 -0.13672,-0.41797c-0.05859,-0.13281 -0.14843,-0.23828 -0.26562,-0.3125c-0.11719,-0.07422 -0.26172,-0.13281 -0.4375,-0.17578c-0.46094,-0.10547 -1.04688,-0.16016 -1.75781,-0.16797c-1.61328,-0.01953 -2.65235,0.08594 -3.11328,0.3125c-0.1836,0.09375 -0.34766,0.22266 -0.4961,0.39063c-0.15625,0.1914 -0.17578,0.29296 -0.0625,0.3125c0.51953,0.07812 0.89063,0.26171 1.10547,0.55859l0.07813,0.15625c0.0625,0.11328 0.12109,0.3125 0.18359,0.59766c0.05859,0.28906 0.09766,0.60546 0.11719,0.95312c0.04297,0.63281 0.04297,1.17578 0,1.62891c-0.04297,0.44922 -0.08594,0.80078 -0.125,1.05468c-0.03907,0.25 -0.09766,0.45313 -0.17578,0.60938c-0.07813,0.15625 -0.12891,0.25391 -0.15625,0.28906c-0.02735,0.03516 -0.04688,0.05469 -0.06641,0.0625c-0.10938,0.04688 -0.22656,0.06641 -0.35156,0.06641c-0.1211,0 -0.26953,-0.0586 -0.44141,-0.1836c-0.17187,-0.12109 -0.35547,-0.28515 -0.53906,-0.5c-0.1875,-0.21093 -0.39844,-0.51171 -0.63281,-0.89062c-0.23438,-0.38281 -0.47657,-0.83594 -0.73047,-1.35547l-0.20703,-0.37891c-0.12891,-0.24218 -0.3086,-0.59765 -0.53516,-1.0625c-0.22656,-0.46093 -0.42578,-0.91406 -0.59766,-1.34765c-0.07031,-0.17969 -0.17578,-0.32031 -0.3125,-0.41406l-0.0664,-0.03907c-0.04297,-0.03515 -0.11328,-0.07422 -0.20703,-0.11328c-0.09766,-0.03906 -0.19532,-0.0664 -0.30079,-0.08203l-3.57031,0.02344c-0.36328,0 -0.60937,0.08203 -0.74219,0.25l-0.05078,0.07812c-0.02734,0.04297 -0.03906,0.11328 -0.03906,0.20703c0,0.09375 0.02734,0.21094 0.07813,0.35157c0.51953,1.22265 1.08593,2.40625 1.69921,3.54297c0.61329,1.13671 1.14454,2.05468 1.59766,2.74609c0.44922,0.69531 0.91016,1.35156 1.37891,1.96875c0.46875,0.61719 0.78125,1.01172 0.92968,1.18359c0.15235,0.17578 0.27344,0.30469 0.35938,0.39063l0.32812,0.3125c0.20704,0.21094 0.51172,0.46094 0.91797,0.75c0.40235,0.29297 0.84766,0.57812 1.33985,0.85937c0.49218,0.28125 1.0625,0.51172 1.71484,0.69141c0.64844,0.17969 1.28516,0.25 1.89844,0.21484l1.5,0c0.30469,-0.02734 0.53125,-0.12109 0.6914,-0.28515l0.05079,-0.06641c0.03515,-0.05078 0.0664,-0.13281 0.09765,-0.24219c0.03125,-0.10547 0.04297,-0.22656 0.04297,-0.35547c-0.00781,-0.375 0.01953,-0.71093 0.08594,-1.01171c0.0664,-0.29688 0.14062,-0.52344 0.22265,-0.67579c0.08204,-0.15234 0.17579,-0.28125 0.28125,-0.38281c0.10157,-0.10547 0.17579,-0.16797 0.21875,-0.1914c0.04297,-0.01954 0.07813,-0.03516 0.10547,-0.04297c0.20703,-0.07032 0.45313,-0.00391 0.73438,0.19922c0.28515,0.20312 0.54687,0.45703 0.79687,0.75781c0.2461,0.29687 0.54297,0.63281 0.89063,1.00781c0.34765,0.375 0.65234,0.65234 0.91406,0.83203l0.25781,0.15625c0.17578,0.10547 0.40235,0.20313 0.67969,0.28906c0.27734,0.08594 0.51953,0.10938 0.72656,0.0625l3.33594,-0.05078c0.32813,0 0.58594,-0.05468 0.76953,-0.16406c0.17969,-0.10547 0.28906,-0.22656 0.32422,-0.35547c0.03516,-0.13281 0.03516,-0.27734 0.00781,-0.44531c-0.03125,-0.16406 -0.0625,-0.27734 -0.09375,-0.34375zm0,0"/>
  </g>
 </g>
</svg>