<?xml version="1.0" encoding="UTF-8"?>
<svg xmlns="http://www.w3.org/2000/svg" xmlns:xlink="http://www.w3.org/1999/xlink" width="25pt" height="25pt" viewBox="0 0 25 25" version="1.1">
<g id="surface1">
<path style=" stroke:none;fill-rule:nonzero;fill:rgb(0%,0%,0%);fill-opacity:1;" d="M 24.882812 18.261719 C 24.851562 18.195312 24.824219 18.140625 24.800781 18.097656 C 24.363281 17.316406 23.535156 16.359375 22.3125 15.21875 L 22.285156 15.195312 L 22.273438 15.179688 L 22.257812 15.167969 L 22.246094 15.167969 C 21.691406 14.636719 21.339844 14.28125 21.191406 14.101562 C 20.921875 13.753906 20.859375 13.402344 21.007812 13.042969 C 21.113281 12.777344 21.503906 12.207031 22.179688 11.339844 C 22.535156 10.878906 22.820312 10.507812 23.027344 10.230469 C 24.53125 8.234375 25.179688 6.957031 24.980469 6.402344 L 24.902344 6.273438 C 24.851562 6.195312 24.71875 6.121094 24.5 6.058594 C 24.28125 5.992188 24.003906 5.980469 23.667969 6.023438 L 19.914062 6.050781 C 19.855469 6.03125 19.765625 6.03125 19.65625 6.058594 C 19.542969 6.082031 19.484375 6.097656 19.484375 6.097656 L 19.417969 6.128906 L 19.367188 6.167969 C 19.324219 6.195312 19.277344 6.238281 19.226562 6.304688 C 19.171875 6.371094 19.128906 6.445312 19.09375 6.53125 C 18.6875 7.582031 18.222656 8.5625 17.699219 9.464844 C 17.378906 10.003906 17.085938 10.46875 16.816406 10.863281 C 16.546875 11.257812 16.320312 11.550781 16.136719 11.738281 C 15.957031 11.921875 15.789062 12.074219 15.644531 12.1875 C 15.496094 12.296875 15.382812 12.347656 15.304688 12.328125 C 15.226562 12.3125 15.152344 12.292969 15.082031 12.277344 C 14.960938 12.199219 14.863281 12.09375 14.789062 11.957031 C 14.714844 11.824219 14.667969 11.652344 14.640625 11.449219 C 14.613281 11.246094 14.597656 11.070312 14.59375 10.921875 C 14.589844 10.773438 14.59375 10.566406 14.601562 10.296875 C 14.609375 10.027344 14.613281 9.84375 14.613281 9.75 C 14.613281 9.421875 14.621094 9.0625 14.632812 8.675781 C 14.648438 8.289062 14.65625 7.984375 14.667969 7.757812 C 14.675781 7.53125 14.679688 7.292969 14.679688 7.039062 C 14.679688 6.789062 14.664062 6.589844 14.632812 6.449219 C 14.601562 6.304688 14.558594 6.167969 14.496094 6.03125 C 14.4375 5.898438 14.347656 5.792969 14.230469 5.71875 C 14.113281 5.644531 13.96875 5.585938 13.792969 5.542969 C 13.332031 5.4375 12.746094 5.382812 12.035156 5.375 C 10.421875 5.355469 9.382812 5.460938 8.921875 5.6875 C 8.738281 5.78125 8.574219 5.910156 8.425781 6.078125 C 8.269531 6.269531 8.25 6.371094 8.363281 6.390625 C 8.882812 6.46875 9.253906 6.652344 9.46875 6.949219 L 9.546875 7.105469 C 9.609375 7.21875 9.667969 7.417969 9.730469 7.703125 C 9.789062 7.992188 9.828125 8.308594 9.847656 8.65625 C 9.890625 9.289062 9.890625 9.832031 9.847656 10.285156 C 9.804688 10.734375 9.761719 11.085938 9.722656 11.339844 C 9.683594 11.589844 9.625 11.792969 9.546875 11.949219 C 9.46875 12.105469 9.417969 12.203125 9.390625 12.238281 C 9.363281 12.273438 9.34375 12.292969 9.324219 12.300781 C 9.214844 12.347656 9.097656 12.367188 8.972656 12.367188 C 8.851562 12.367188 8.703125 12.308594 8.53125 12.183594 C 8.359375 12.0625 8.175781 11.898438 7.992188 11.683594 C 7.804688 11.472656 7.59375 11.171875 7.359375 10.792969 C 7.125 10.410156 6.882812 9.957031 6.628906 9.4375 L 6.421875 9.058594 C 6.292969 8.816406 6.113281 8.460938 5.886719 7.996094 C 5.660156 7.535156 5.460938 7.082031 5.289062 6.648438 C 5.21875 6.46875 5.113281 6.328125 4.976562 6.234375 L 4.910156 6.195312 C 4.867188 6.160156 4.796875 6.121094 4.703125 6.082031 C 4.605469 6.042969 4.507812 6.015625 4.402344 6 L 0.832031 6.023438 C 0.46875 6.023438 0.222656 6.105469 0.0898438 6.273438 L 0.0390625 6.351562 C 0.0117188 6.394531 0 6.464844 0 6.558594 C 0 6.652344 0.0273438 6.769531 0.078125 6.910156 C 0.597656 8.132812 1.164062 9.316406 1.777344 10.453125 C 2.390625 11.589844 2.921875 12.507812 3.375 13.199219 C 3.824219 13.894531 4.285156 14.550781 4.753906 15.167969 C 5.222656 15.785156 5.535156 16.179688 5.683594 16.351562 C 5.835938 16.527344 5.957031 16.65625 6.042969 16.742188 L 6.371094 17.054688 C 6.578125 17.265625 6.882812 17.515625 7.289062 17.804688 C 7.691406 18.097656 8.136719 18.382812 8.628906 18.664062 C 9.121094 18.945312 9.691406 19.175781 10.34375 19.355469 C 10.992188 19.535156 11.628906 19.605469 12.242188 19.570312 L 13.742188 19.570312 C 14.046875 19.542969 14.273438 19.449219 14.433594 19.285156 L 14.484375 19.21875 C 14.519531 19.167969 14.550781 19.085938 14.582031 18.976562 C 14.613281 18.871094 14.625 18.75 14.625 18.621094 C 14.617188 18.246094 14.644531 17.910156 14.710938 17.609375 C 14.777344 17.3125 14.851562 17.085938 14.933594 16.933594 C 15.015625 16.78125 15.109375 16.652344 15.214844 16.550781 C 15.316406 16.445312 15.390625 16.382812 15.433594 16.359375 C 15.476562 16.339844 15.511719 16.324219 15.539062 16.316406 C 15.746094 16.246094 15.992188 16.3125 16.273438 16.515625 C 16.558594 16.71875 16.820312 16.972656 17.070312 17.273438 C 17.316406 17.570312 17.613281 17.90625 17.960938 18.28125 C 18.308594 18.65625 18.613281 18.933594 18.875 19.113281 L 19.132812 19.269531 C 19.308594 19.375 19.535156 19.472656 19.8125 19.558594 C 20.089844 19.644531 20.332031 19.667969 20.539062 19.621094 L 23.875 19.570312 C 24.203125 19.570312 24.460938 19.515625 24.644531 19.40625 C 24.824219 19.300781 24.933594 19.179688 24.96875 19.050781 C 25.003906 18.917969 25.003906 18.773438 24.976562 18.605469 C 24.945312 18.441406 24.914062 18.328125 24.882812 18.261719 Z M 24.882812 18.261719 "/>
</g>
</svg>
