<?xml version="1.0" standalone="no"?>
<!DOCTYPE svg PUBLIC "-//W3C//DTD SVG 20010904//EN"
 "http://www.w3.org/TR/2001/REC-SVG-20010904/DTD/svg10.dtd">
<svg version="1.0" xmlns="http://www.w3.org/2000/svg"
 width="300.000000pt" height="300.000000pt" viewBox="0 0 300.000000 300.000000"
 preserveAspectRatio="xMidYMid meet">
<metadata>
Created by potrace 1.14, written by Peter Selinger 2001-2017
</metadata>
<g transform="translate(0.000000,300.000000) scale(0.100000,-0.100000)"
fill="#000000" stroke="none">
<path d="M22 2897 l3 -102 215 -2 c118 0 222 -2 230 -2 14 -1 15 -147 15
-1293 l0 -1293 -230 0 -230 0 -3 -102 -3 -103 781 0 780 0 0 103 0 103 -222
-1 c-123 -1 -230 1 -240 3 -15 4 -16 49 -16 561 l0 557 236 3 c777 9 864 14
990 60 28 11 52 18 52 16 0 -2 27 10 60 26 33 16 63 29 67 29 19 0 207 138
262 192 120 119 162 200 209 398 8 34 7 177 -1 222 -25 131 -117 305 -219 409
-123 127 -345 242 -531 275 -17 2 -34 7 -39 10 -29 18 -189 22 -1231 28 l-938
6 3 -103z m1695 -111 c246 -9 375 -50 474 -150 53 -53 89 -121 109 -201 16
-61 21 -421 8 -497 -5 -29 -11 -66 -14 -83 -7 -43 -59 -145 -90 -179 -63 -67
-199 -132 -314 -151 -87 -14 -755 -28 -800 -17 -14 3 -16 74 -14 645 0 353 2
642 3 642 216 0 517 -4 638 -9z"/>
</g>
</svg>
